<?xml version="1.0" encoding="UTF-8"?>
<svg version="1.1" xmlns="http://www.w3.org/2000/svg" width="512" height="512">
<path d="M0 0 C1.14755469 -0.00453111 2.29510938 -0.00906223 3.47743845 -0.01373065 C7.29607656 -0.02632046 11.11457106 -0.02475775 14.93322754 -0.02310181 C17.68231742 -0.02800788 20.43139743 -0.03584111 23.18048096 -0.04345703 C29.85828789 -0.06001033 36.5360595 -0.06556405 43.21388525 -0.06668179 C48.64872418 -0.06763521 54.08355156 -0.07176014 59.51838684 -0.07808304 C74.96233849 -0.09568201 90.40626245 -0.10492432 105.8502242 -0.10342209 C107.09690655 -0.10330222 107.09690655 -0.10330222 108.36877441 -0.10317993 C109.20092336 -0.10309817 110.03307232 -0.10301641 110.8904379 -0.10293217 C124.35965865 -0.10212023 137.82876733 -0.12123808 151.29795569 -0.14945666 C165.16252577 -0.17827185 179.02704135 -0.19199215 192.89164209 -0.19026911 C200.6615895 -0.18960806 208.43141948 -0.19497429 216.20133972 -0.21662521 C222.82002626 -0.23495138 229.43854219 -0.23909177 236.05724329 -0.22560637 C239.42585996 -0.21913284 242.79388707 -0.2209804 246.16251373 -0.23631287 C277.61803487 -0.37011426 305.89477815 6.00059645 330.09924316 27.26742554 C330.90490723 27.93000366 331.71057129 28.59258179 332.54064941 29.27523804 C351.32432756 45.20755972 362.88058388 67.60597859 368.41174316 91.32992554 C368.57134521 92.00072144 368.73094727 92.67151733 368.89538574 93.36264038 C371.57529758 105.87876092 371.24510642 119.01587897 371.21276855 131.74960327 C371.21248563 133.3380025 371.21264648 134.92640187 371.21321106 136.51480103 C371.21349491 140.77618534 371.20766557 145.0375408 371.2006371 149.29891849 C371.19433422 153.77117178 371.19379433 158.24342593 371.19261169 162.71568298 C371.18951865 171.16189793 371.1813329 179.60809975 371.1712622 188.05430895 C371.16003771 197.67962301 371.15457473 207.30493774 371.14956677 216.93025672 C371.13914834 236.70932029 371.12158862 256.48837208 371.09924316 276.26742554 C367.69366916 276.26742554 367.29457015 275.90536132 364.79846191 273.81039429 C364.15844238 273.2805896 363.51842285 272.75078491 362.85900879 272.20492554 C362.17516113 271.62742554 361.49131348 271.04992554 360.78674316 270.45492554 C359.33314279 269.24950084 357.87870129 268.0450898 356.42346191 266.84164429 C355.69433594 266.23626831 354.96520996 265.63089233 354.21398926 265.00717163 C351.21632277 262.54107011 348.1632337 260.15023363 345.09924316 257.76742554 C339.35819109 253.28666444 333.70228047 248.70783529 328.06018066 244.10336304 C323.77472698 240.61212471 319.45594863 237.16923666 315.09924316 233.76742554 C309.35913649 229.28542443 303.7023107 224.70785996 298.06018066 220.10336304 C293.2175163 216.15818088 288.32580165 212.28222274 283.39929199 208.44247437 C279.51544527 205.40637363 275.690376 202.30566133 271.88269043 199.1746521 C260.4262469 188.92993155 260.4262469 188.92993155 246.33752441 183.98226929 C239.96570935 184.7940363 235.48571376 189.27745108 230.91174316 193.39242554 C229.58211536 194.56815141 228.25137905 195.74262483 226.91955566 196.91586304 C225.94550781 197.77582886 225.94550781 197.77582886 224.95178223 198.65316772 C222.44600715 200.83663963 219.87394866 202.93144504 217.28674316 205.01742554 C213.79688428 207.84230392 210.41913803 210.74460133 207.09924316 213.76742554 C203.7793483 216.79024975 200.40160205 219.69254715 196.91174316 222.51742554 C190.47212323 227.73261069 184.24468913 233.18074305 177.99572754 238.62094116 C173.30139795 242.69645078 168.57025576 246.729264 163.84631348 250.77035522 C162.06088693 252.30029312 160.27888171 253.83413354 158.49768066 255.36898804 C153.16374252 259.96119689 147.81882103 264.52387511 142.34924316 268.95492554 C138.84040326 271.80201055 135.44057679 274.72555106 132.09924316 277.76742554 C128.53092442 281.00513328 124.91711055 284.1720778 121.22424316 287.26742554 C120.33994629 288.00992554 119.45564941 288.75242554 118.54455566 289.51742554 C114.60254893 292.33854218 114.60254893 292.33854218 112.09924316 292.26742554 C109.86520232 290.69633178 107.97332788 289.16183224 105.97424316 287.32992554 C104.80070761 286.2950004 103.62622168 285.26115195 102.45080566 284.22836304 C101.87620605 283.71757202 101.30160645 283.20678101 100.70959473 282.68051147 C98.64346899 280.86748301 96.50918498 279.15467357 94.34924316 277.45492554 C87.60133313 272.10238301 80.97894537 266.59709106 74.33703613 261.11410522 C72.16635628 259.32280887 69.99444272 257.5330237 67.82189941 255.74398804 C67.1237915 255.1689856 66.42568359 254.59398315 65.7064209 254.0015564 C64.30439706 252.84774162 62.90156752 251.69490514 61.4979248 250.5430603 C57.80956963 247.51375158 54.14107968 244.46399659 50.49768066 241.38070679 C49.74035645 240.74455444 48.98303223 240.1084021 48.20275879 239.45297241 C46.76081208 238.24102947 45.3242195 237.02267521 43.89416504 235.79672241 C39.25910243 231.91673379 34.91336704 228.79043249 28.76330566 227.94711304 C21.86617931 228.60775732 18.20241191 231.81665052 13.09924316 236.26742554 C11.16286287 237.87152128 9.21593745 239.46233889 7.26916504 241.05380249 C5.05070376 242.86965598 2.839653 244.6941765 0.63049316 246.52133179 C-3.70830282 250.10939699 -8.05370669 253.68936816 -12.40075684 257.26742554 C-13.81745642 258.43405223 -15.23412303 259.60071897 -16.65075684 260.76742554 C-36.48409017 277.10075887 -56.3174235 293.4340922 -76.15075684 309.76742554 C-76.85289307 310.3457312 -77.5550293 310.92403687 -78.27844238 311.51986694 C-79.68585621 312.67876125 -81.09356795 313.83729387 -82.50158691 314.99545288 C-86.1874296 318.02803795 -89.86687769 321.06796189 -93.53747559 324.11898804 C-94.68022949 325.06644897 -94.68022949 325.06644897 -95.84606934 326.03305054 C-97.29722496 327.23644788 -98.7465679 328.44203589 -100.19372559 329.65023804 C-103.96691394 332.77490964 -107.76916882 335.63297594 -111.90075684 338.26742554 C-113.73409414 336.43408824 -113.02883991 333.86634271 -113.03916234 331.42581677 C-113.03761374 330.57926361 -113.03606513 329.73271044 -113.0344696 328.86050415 C-113.03673516 327.96791798 -113.03900072 327.07533182 -113.04133493 326.15569758 C-113.04770649 323.13986749 -113.0468435 320.12408197 -113.04602051 317.10824585 C-113.04901043 314.95500632 -113.05241257 312.80176733 -113.05619812 310.64852905 C-113.06506907 304.77546186 -113.0673778 298.90240922 -113.06801391 293.02933598 C-113.06872379 289.35483969 -113.07085715 285.68034711 -113.07351112 282.00585175 C-113.0827816 269.16953801 -113.08684474 256.33323469 -113.08605957 243.49691772 C-113.08546145 231.56567362 -113.09595636 219.63447513 -113.11180323 207.70324254 C-113.12493838 197.44480276 -113.13024082 187.18637775 -113.12960416 176.92792964 C-113.1293505 170.80883229 -113.13212688 164.68977526 -113.14278221 158.57068634 C-113.15256148 152.79560386 -113.15247598 147.02059936 -113.14526558 141.24551392 C-113.14423114 139.14188267 -113.14651348 137.03824633 -113.15262604 134.93462372 C-113.18077385 124.56296674 -112.97536751 114.28786282 -112.01838684 103.95510864 C-111.94190294 103.12261825 -111.86541905 102.29012785 -111.78661746 101.43241048 C-108.79017086 72.3694002 -93.7619695 45.46477688 -71.67810059 26.45101929 C-50.92467777 10.13433384 -26.64837318 -0.07843741 0 0 Z M15.13830566 85.38461304 C4.84723184 97.65301109 0.73051118 112.48369344 2.09924316 128.26742554 C4.38499288 143.70300441 11.2714919 157.15953075 23.44299316 167.20101929 C37.78254176 177.75147831 53.62502445 181.53673517 71.17687988 178.96273804 C87.31529815 175.74244791 100.06762621 165.5578687 109.34143066 152.24789429 C117.26953896 138.80534621 119.27268609 123.58509464 116.34533691 108.34164429 C115.4125032 105.2285404 114.3551932 102.26338968 113.09924316 99.26742554 C112.81049316 98.5365271 112.52174316 97.80562866 112.22424316 97.05258179 C105.76018065 82.47958371 93.3354017 73.2820471 79.09924316 67.26742554 C55.10145689 58.64893123 31.87803537 67.31104033 15.13830566 85.38461304 Z " fill="#FD8D2B" transform="translate(126.9007568359375,14.732574462890625)"/>
<path d="M0 0 C3.26094254 0.46906937 5.13461983 1.66554689 7.6171875 3.7734375 C8.29934326 4.34537842 8.98149902 4.91731934 9.68432617 5.5065918 C10.40724854 6.1231665 11.1301709 6.73974121 11.875 7.375 C13.40910038 8.66141647 14.94427111 9.94655749 16.48046875 11.23046875 C17.62588135 12.19025635 17.62588135 12.19025635 18.79443359 13.16943359 C21.88198224 15.73202378 25.02395874 18.21972039 28.1875 20.6875 C28.75404297 21.13029297 29.32058594 21.57308594 29.90429688 22.02929688 C31.60176008 23.35428816 33.30081704 24.67721523 35 26 C43.08271305 32.30456249 51.09653523 38.68248995 59.03857422 45.16357422 C63.3241126 48.65507316 67.64311384 52.0980478 72 55.5 C77.74010668 59.9820011 83.39693246 64.55956557 89.0390625 69.1640625 C92.72995403 72.1709278 96.43472485 75.15579617 100.19113159 78.08056641 C101.32561185 78.97080219 102.45389471 79.86905532 103.57278442 80.77880859 C106.65511624 83.26721565 109.74082603 85.4882742 113.14404297 87.51953125 C118.46145435 90.89765686 123.79868211 94.37016547 125.85559082 100.58520508 C127.0704899 107.86828347 126.55015172 115.1653214 126.125 122.5 C126.06171898 124.67167478 126.00568364 126.84357325 125.95703125 129.015625 C124.85992556 169.02273351 117.9031111 203.63836832 88.38964844 232.57910156 C67.92745211 251.83096465 40.18412992 263.35005746 12.09251404 263.26742554 C10.37012366 263.27422221 10.37012366 263.27422221 8.61293751 263.28115618 C4.79196544 263.29374601 0.97113691 263.29218329 -2.84985352 263.29052734 C-5.60056591 263.29543337 -8.35126844 263.30326658 -11.10197449 263.31088257 C-17.78345643 263.32743545 -24.46490306 263.33298955 -31.1464038 263.33410732 C-36.583635 263.33506069 -42.02085465 263.33918531 -47.4580822 263.34550858 C-62.90709951 263.36310677 -78.35608913 263.37234988 -93.80511654 263.37084763 C-95.05219298 263.37072776 -95.05219298 263.37072776 -96.32446289 263.37060547 C-97.15687415 263.37052371 -97.98928541 263.37044195 -98.84692126 263.37035771 C-112.32328406 263.3695456 -125.79953488 263.38866791 -139.27586532 263.4168822 C-153.14608063 263.44568963 -167.01624148 263.45941813 -180.88648742 263.45769465 C-188.66031531 263.45703337 -196.43402585 263.46240972 -204.20782661 263.48405075 C-210.82910357 263.50236655 -217.45021002 263.50652555 -224.0715015 263.4930319 C-227.4420195 263.4865535 -230.81194785 263.48841941 -234.18247604 263.5037384 C-265.40360169 263.63636071 -294.00352061 257.08408617 -318 236 C-318.80566406 235.33742188 -319.61132812 234.67484375 -320.44140625 233.9921875 C-339.44265605 217.87532148 -350.89208699 195.29147959 -356.4375 171.3125 C-356.70203979 170.18062256 -356.70203979 170.18062256 -356.97192383 169.02587891 C-358.55916075 161.59079446 -358.55916075 161.59079446 -357 158 C-354.87679297 155.65992504 -352.50424922 153.6863916 -350.0625 151.6875 C-349.37591309 151.10991943 -348.68932617 150.53233887 -347.98193359 149.93725586 C-343.62931483 146.29133723 -339.22040548 142.71458002 -334.76171875 139.19921875 C-331.11950897 136.29884519 -327.52885725 133.3379705 -323.9375 130.375 C-322.84526123 129.47406616 -322.84526123 129.47406616 -321.73095703 128.55493164 C-320.23308426 127.31903115 -318.73536448 126.08294521 -317.23779297 124.84667969 C-313.66088205 121.8949282 -310.08031669 118.94761867 -306.5 116 C-305.08331453 114.83335617 -303.66664789 113.66668947 -302.25 112.5 C-281 95 -281 95 -259.75 77.5 C-259.0482666 76.92209717 -258.3465332 76.34419434 -257.62353516 75.7487793 C-256.21177011 74.5861588 -254.79998636 73.42356102 -253.38818359 72.26098633 C-249.03038519 68.67241833 -244.6729422 65.08342097 -240.31713867 61.49243164 C-238.87339864 60.30370572 -237.42828175 59.11664975 -235.98168945 57.93139648 C-232.83317168 55.34995941 -229.70173767 52.75724243 -226.62890625 50.0859375 C-225.65824219 49.25320313 -224.68757812 48.42046875 -223.6875 47.5625 C-222.45580078 46.48162109 -222.45580078 46.48162109 -221.19921875 45.37890625 C-219 44 -219 44 -217.04760742 44.26782227 C-213.66626042 45.47691487 -211.25703306 48.00909473 -208.625 50.375 C-203.8558326 54.56805999 -199.02741746 58.62018384 -194 62.5 C-188.54489183 66.72577724 -183.27625106 71.12755094 -178.05883789 75.64257812 C-171.17511317 81.5967025 -164.11183823 87.32067107 -157 93 C-158.57575936 97.28283314 -161.83817222 99.68508075 -165.25 102.5 C-166.51837393 103.56623407 -167.78659877 104.63264551 -169.0546875 105.69921875 C-169.70663086 106.24368652 -170.35857422 106.7881543 -171.03027344 107.34912109 C-174.16702519 109.97811407 -177.27073768 112.64529683 -180.375 115.3125 C-181.53514746 116.30860399 -182.69530341 117.30469809 -183.85546875 118.30078125 C-184.39349121 118.76307129 -184.93151367 119.22536133 -185.48583984 119.70166016 C-186.83765661 120.86079617 -188.1939206 122.01474109 -189.55078125 123.16796875 C-190.25589844 123.77253906 -190.96101562 124.37710938 -191.6875 125 C-192.55955078 125.7425 -192.55955078 125.7425 -193.44921875 126.5 C-197.34748472 130.27061495 -198.69657219 133.27036224 -199.12890625 138.6171875 C-198.90907051 142.68081788 -197.4070891 145.7626175 -195 149 C-191.56816763 151.79965272 -188.41440223 152.8302153 -184 153 C-176.53335053 152.02100682 -172.07904955 147.73047969 -166.8046875 142.66796875 C-164.20664918 140.19657575 -161.54498779 137.93095459 -158.75 135.6875 C-152.3286135 130.49923893 -146.1264378 125.07049945 -139.90087891 119.65087891 C-131.95394318 112.74910915 -123.93322101 105.93312714 -115.8918457 99.1418457 C-109.56552711 93.79513549 -103.28381663 88.39652647 -97 83 C-89.65148932 76.68911686 -82.29259683 70.3919562 -74.89208984 64.14208984 C-68.56575635 58.79521893 -62.28390421 53.39660168 -56 48 C-48.65148932 41.68911686 -41.29259683 35.3919562 -33.89208984 29.14208984 C-28.17735867 24.31213108 -22.49984997 19.43910246 -16.82324219 14.56445312 C-14.89651271 12.91120159 -12.96799735 11.26005275 -11.0390625 9.609375 C-10.39445068 9.05757568 -9.74983887 8.50577637 -9.08569336 7.93725586 C-7.84195787 6.87268227 -6.59798855 5.80838177 -5.35375977 4.74438477 C-2.61479569 2.44031949 -2.61479569 2.44031949 0 0 Z " fill="#FD6E27" transform="translate(373,234)"/>
</svg>
